<?xml version="1.0" encoding="utf-8"?>
<!-- Generator: Adobe Illustrator 16.0.0, SVG Export Plug-In . SVG Version: 6.00 Build 0)  -->
<!DOCTYPE svg PUBLIC "-//W3C//DTD SVG 1.1//EN" "http://www.w3.org/Graphics/SVG/1.1/DTD/svg11.dtd">
<svg version="1.1" id="Layer_1" xmlns="http://www.w3.org/2000/svg" xmlns:xlink="http://www.w3.org/1999/xlink" x="0px" y="0px"
	 width="110px" height="110px" viewBox="0 0 110 110" enable-background="new 0 0 110 110" xml:space="preserve">
<g>
	<g>
		
			<polyline fill="none" stroke="#FFFF33" stroke-width="2" stroke-linecap="round" stroke-linejoin="round" stroke-miterlimit="10" points="
			46.282,85.988 42.882,88.07 12.222,38.028 46.859,16.807 52.055,25.289 		"/>
		
			<polyline fill="none" stroke="#FFFF33" stroke-width="2" stroke-linecap="round" stroke-linejoin="round" stroke-miterlimit="10" points="
			46.365,86.122 35.362,28.475 75.264,20.859 77.523,32.707 		"/>
		
			<rect x="51.92" y="32.232" transform="matrix(-0.9797 -0.2007 0.2007 -0.9797 130.6356 136.3988)" fill="none" stroke="#FFFF33" stroke-width="2" stroke-linecap="round" stroke-linejoin="round" stroke-miterlimit="10" width="40.624" height="58.69"/>
	</g>
	<path fill="none" stroke="#FFFF33" stroke-width="2" stroke-linecap="round" stroke-linejoin="round" stroke-miterlimit="10" d="
		M81.76,63.566c0.594-2.909-1.208-5.743-4.047-6.482c0.462-0.628,0.801-1.359,0.967-2.173c0.612-3.009-1.332-5.946-4.34-6.559
		c-3.009-0.612-5.947,1.331-6.561,4.34c-0.164,0.813-0.139,1.62,0.039,2.378c-2.901-0.429-5.664,1.477-6.256,4.386
		c-0.611,3.01,1.33,5.946,4.34,6.56c0.781,0.159,1.556,0.139,2.287-0.021c-0.797,2.612-2.86,7.827-6.471,7.093l7.284,1.482
		l7.284,1.481c-3.609-0.733-3.473-6.341-3.184-9.057c0.609,0.433,1.313,0.754,2.098,0.913C78.21,68.521,81.146,66.577,81.76,63.566z
		"/>
</g>
</svg>
