<?xml version="1.0" encoding="utf-8"?>
<!-- Generator: Adobe Illustrator 16.0.0, SVG Export Plug-In . SVG Version: 6.00 Build 0)  -->
<!DOCTYPE svg PUBLIC "-//W3C//DTD SVG 1.1//EN" "http://www.w3.org/Graphics/SVG/1.1/DTD/svg11.dtd">
<svg version="1.1" id="Layer_1" xmlns="http://www.w3.org/2000/svg" xmlns:xlink="http://www.w3.org/1999/xlink" x="0px" y="0px"
	 width="110px" height="110px" viewBox="0 0 110 110" enable-background="new 0 0 110 110" xml:space="preserve">
<g>
	<g>
		
			<polyline fill="none" stroke="#FFFF33" stroke-width="2" stroke-linecap="round" stroke-linejoin="round" stroke-miterlimit="10" points="
			45.631,86.059 42.229,88.142 11.569,38.1 46.207,16.878 51.403,25.359 		"/>
		
			<polyline fill="none" stroke="#FFFF33" stroke-width="2" stroke-linecap="round" stroke-linejoin="round" stroke-miterlimit="10" points="
			45.713,86.193 34.71,28.546 74.611,20.931 76.873,32.777 		"/>
		
			<rect x="51.264" y="32.302" transform="matrix(0.9797 0.2007 -0.2007 0.9797 13.8293 -13.1114)" fill="none" stroke="#FFFF33" stroke-width="2" stroke-linecap="round" stroke-linejoin="round" stroke-miterlimit="10" width="40.623" height="58.688"/>
	</g>
	<path fill="none" stroke="#FFFF33" stroke-width="2" stroke-linecap="round" stroke-linejoin="round" stroke-miterlimit="10" d="
		M60.604,54.963c-1.251,6.146,9.993,11.485,8.896,16.875c1.097-5.39,13.533-5.908,14.784-12.055c0.665-3.27-1.446-6.459-4.716-7.125
		s-6.459,1.446-7.125,4.715c0.666-3.269-1.445-6.459-4.715-7.125S61.269,51.694,60.604,54.963z"/>
</g>
</svg>
