<?xml version="1.0" encoding="utf-8"?>
<!-- Generator: Adobe Illustrator 16.0.0, SVG Export Plug-In . SVG Version: 6.00 Build 0)  -->
<!DOCTYPE svg PUBLIC "-//W3C//DTD SVG 1.1//EN" "http://www.w3.org/Graphics/SVG/1.1/DTD/svg11.dtd">
<svg version="1.1" id="Layer_1" xmlns="http://www.w3.org/2000/svg" xmlns:xlink="http://www.w3.org/1999/xlink" x="0px" y="0px"
	 width="241.667px" height="99.167px" viewBox="0 0 241.667 99.167" enable-background="new 0 0 241.667 99.167"
	 xml:space="preserve">
<g>
	<g>
		<circle cx="49.791" cy="49.583" r="38.334"/>
		<g>
			<polygon fill="#3DB54A" points="56.656,54.164 52.076,54.164 52.076,49.583 47.506,49.583 47.506,54.164 42.906,54.164 
				42.906,49.583 38.326,49.583 38.326,54.164 38.326,58.753 42.906,58.753 42.906,63.333 42.906,67.914 42.906,72.503 
				47.506,72.503 52.076,72.503 56.656,72.503 56.656,67.914 56.656,63.333 56.656,58.753 61.256,58.753 61.256,54.164 			"/>
			<g>
				<polygon fill="#0E3A24" points="65.826,49.583 65.826,45.003 65.826,40.414 61.256,40.414 56.656,40.414 52.076,40.414 
					52.076,45.003 56.656,45.003 61.256,45.003 61.256,49.583 61.256,54.164 65.826,54.164 70.406,54.164 70.406,49.583 				"/>
				<rect x="61.256" y="31.253" fill="#0E3A24" width="4.57" height="4.58"/>
				<rect x="47.506" y="31.253" fill="#0E3A24" width="4.57" height="4.58"/>
				<polygon fill="#0E3A24" points="47.506,40.414 42.906,40.414 42.906,35.833 38.326,35.833 38.326,40.414 33.756,40.414 
					33.756,45.003 33.756,49.583 29.156,49.583 29.156,54.164 33.756,54.164 38.326,54.164 38.326,49.583 42.906,49.583 
					47.506,49.583 52.076,49.583 52.076,45.003 47.506,45.003 				"/>
				<rect x="24.576" y="45.003" fill="#0E3A24" width="4.58" height="4.58"/>
			</g>
			<g>
				<polygon fill="#046938" points="70.406,40.414 65.826,40.414 65.826,45.003 65.826,49.583 70.406,49.583 75.006,49.583 
					75.006,45.003 75.006,40.414 				"/>
				<rect x="61.256" y="54.164" fill="#046938" width="4.57" height="4.59"/>
				<polygon fill="#046938" points="61.256,35.833 61.256,31.253 56.656,31.253 52.076,31.253 52.076,35.833 47.506,35.833 
					47.506,31.253 52.076,31.253 52.076,26.664 47.506,26.664 42.906,26.664 38.326,26.664 38.326,31.253 33.756,31.253 
					33.756,35.833 33.756,40.414 38.326,40.414 38.326,35.833 42.906,35.833 42.906,40.414 47.506,40.414 47.506,45.003 
					52.076,45.003 52.076,40.414 56.656,40.414 61.256,40.414 65.826,40.414 65.826,35.833 				"/>
				<polygon fill="#046938" points="56.656,49.583 56.656,54.164 61.256,54.164 61.256,49.583 61.256,45.003 56.656,45.003 
					52.076,45.003 52.076,49.583 				"/>
				<polygon fill="#046938" points="24.576,40.414 24.576,45.003 29.156,45.003 29.156,49.583 33.756,49.583 33.756,45.003 
					33.756,40.414 29.156,40.414 				"/>
			</g>
		</g>
	</g>
	<g>
		<g>
			<path d="M101.972,47.442h-1.425v-1.425v-1.421v-1.425V41.75v-1.425v-1.421V37.48v-1.425v-1.421v-1.425v-1.421v-1.425h1.425h1.421
				h1.425h1.421h1.425h1.424h1.422h1.424v1.425v1.421h1.422h1.424v1.425v1.421h-1.424h-1.422v-1.421v-1.425h-1.424h-1.422h-1.424
				h-1.425h-1.421h-1.425v1.425v1.421h1.425h1.421h1.425h1.424h1.422h1.424v1.425v1.425h-1.424h-1.422h-1.424h-1.425h-1.421h-1.425
				v1.421v1.425v1.421v1.425v1.421v1.425H101.972z"/>
			<path d="M121.895,47.442h-1.426h-1.42h-1.426v-1.425v-1.421h1.426v-1.425V41.75v-1.425v-1.421V37.48v-1.425v-1.421v-1.425h-1.426
				v-1.421v-1.425h1.426h1.42h1.426h1.422v1.425v1.421h-1.422v1.425v1.421v1.425v1.425v1.421v1.425v1.421v1.425h1.422v1.421v1.425
				H121.895z"/>
			<path d="M127.586,33.209h-1.422h-1.424v-1.421v-1.425h1.424h1.422v1.425V33.209z M126.165,47.442h-1.424v-1.425v-1.421v-1.425
				V41.75h1.424h1.422v1.421v1.425v1.421v1.425H126.165z M130.432,36.055h-1.422h-1.424v-1.421v-1.425h1.424h1.422v1.425V36.055z
				 M127.586,41.75v-1.425v-1.421h1.424h1.422v1.421v1.425h-1.422H127.586z M133.282,38.905h-1.426h-1.424V37.48v-1.425h1.424h1.426
				v1.425V38.905z M133.282,36.055v-1.421v-1.425h1.42h1.426v1.425v1.421h-1.426H133.282z M136.127,41.75h-1.426h-1.42v-1.425
				v-1.421h1.42h1.426v1.421V41.75z M136.127,33.209v-1.421v-1.425h1.42h1.426v1.425v1.421h-1.426H136.127z M137.547,47.442h-1.42
				v-1.425v-1.421v-1.425V41.75h1.42h1.426v1.421v1.425v1.421v1.425H137.547z"/>
			<path d="M153.204,47.442h-1.424h-1.422h-1.424h-1.422h-1.424h-1.424h-1.422h-1.424h-1.422v-1.425v-1.421v-1.425V41.75v-1.425
				v-1.421V37.48v-1.425v-1.421v-1.425v-1.421v-1.425h1.422h1.424h1.422h1.424h1.424h1.422h1.424h1.422h1.424h1.422v1.425v1.421
				h-1.422h-1.424h-1.422h-1.424h-1.422h-1.424h-1.424h-1.422v1.425v1.421h1.422h1.424h1.424v1.425v1.425h-1.424h-1.424h-1.422
				v1.421v1.425v1.421v1.425h1.422h1.424h1.424h1.422h1.424h1.422h1.424h1.422v1.421v1.425H153.204z"/>
			<path d="M167.436,47.442h-1.424h-1.422h-1.424h-1.426h-1.42h-1.426h-1.42h-1.426v-1.425v-1.421v-1.425V41.75v-1.425v-1.421V37.48
				v-1.425v-1.421v-1.425v-1.421v-1.425h1.426h1.42v1.425v1.421v1.425v1.421v1.425v1.425v1.421v1.425v1.421v1.425h1.426h1.42h1.426
				h1.424h1.422h1.424h1.422v1.421v1.425H167.436z"/>
			<path d="M181.668,47.442h-1.426v-1.425v-1.421v-1.425V41.75v-1.425v-1.421h-1.424h-1.422h-1.424h-1.422h-1.424v1.421v1.425v1.421
				v1.425v1.421v1.425h-1.422h-1.424v-1.425v-1.421v-1.425V41.75v-1.425v-1.421V37.48v-1.425v-1.421v-1.425h1.424h1.422v1.425v1.421
				h1.424h1.422h1.424h1.422h1.424v-1.421v-1.425h1.426h1.42v1.425v1.421v1.425v1.425v1.421v1.425v1.421v1.425v1.421v1.425H181.668z
				 M180.243,33.209h-1.424h-1.422h-1.424h-1.422h-1.424v-1.421v-1.425h1.424h1.422h1.424h1.422h1.424v1.425V33.209z"/>
			<path d="M191.629,47.442h-1.424v-1.425v-1.421v-1.425V41.75v-1.425v-1.421V37.48v-1.425v-1.421v-1.425h-1.422h-1.424h-1.426
				h-1.42v-1.421v-1.425h1.42h1.426h1.424h1.422h1.424h1.422h1.424h1.424h1.422h1.424v1.425v1.421h-1.424h-1.422h-1.424h-1.424
				v1.425v1.421v1.425v1.425v1.421v1.425v1.421v1.425v1.421v1.425H191.629z"/>
			<path d="M212.977,47.442h-1.424h-1.422h-1.424h-1.426h-1.42h-1.426h-1.42h-1.426h-1.424v-1.425v-1.421v-1.425V41.75v-1.425
				v-1.421V37.48v-1.425v-1.421v-1.425v-1.421v-1.425h1.424h1.426h1.42h1.426h1.42h1.426h1.424h1.422h1.424h1.422v1.425v1.421
				h-1.422h-1.424h-1.422h-1.424h-1.426h-1.42h-1.426h-1.42v1.425v1.421h1.42h1.426h1.42v1.425v1.425h-1.42h-1.426h-1.42v1.421
				v1.425v1.421v1.425h1.42h1.426h1.42h1.426h1.424h1.422h1.424h1.422v1.421v1.425H212.977z"/>
			<path d="M225.784,47.442h-1.424h-1.422h-1.424h-1.422h-1.424h-1.424h-1.422v-1.425v-1.421v-1.425V41.75v-1.425v-1.421V37.48
				v-1.425v-1.421v-1.425v-1.421v-1.425h1.422h1.424h1.424h1.422h1.424h1.422h1.424h1.426v1.425v1.421h1.42h1.426v1.425v1.421v1.425
				v1.425v1.421v1.425v1.421v1.425h-1.426h-1.42v-1.425V41.75v-1.425v-1.421V37.48v-1.425v-1.421v-1.425h-1.426h-1.424h-1.422
				h-1.424h-1.422h-1.424v1.425v1.421v1.425v1.425v1.421v1.425v1.421v1.425h1.424h1.422h1.424h1.422h1.424h1.426v1.421v1.425
				H225.784z"/>
		</g>
		<g>
			<path d="M110.743,68.802h-1.456h-1.457h-1.457h-1.456h-1.457h-1.456h-1.457v-1.457V65.89v-1.457v-1.457v-1.457v-1.457v-1.455
				V57.15v-1.461v-1.455v-1.457V51.32h1.457h1.456h1.457h1.456h1.457h1.457h1.456h1.46v1.457v1.457h1.457h1.456v1.455v1.461v1.457
				h-1.456h-1.457V57.15v-1.461v-1.455h-1.46h-1.456h-1.457h-1.457h-1.456h-1.457v1.455v1.461v1.457h1.457h1.456h1.457h1.457h1.456
				h1.46v1.455v1.457h1.457h1.456v1.457v1.457v1.457h-1.456h-1.457v-1.457v-1.457v-1.457h-1.46h-1.456h-1.457h-1.457h-1.456h-1.457
				v1.457v1.457v1.457h1.457h1.456h1.457h1.457h1.456h1.46v1.455v1.457H110.743z"/>
			<path d="M118.03,68.802h-1.457v-1.457V65.89v-1.457v-1.457v-1.457v-1.457v-1.455V57.15v-1.461v-1.455v-1.457V51.32h1.457h1.457
				h1.457h1.455h1.457h1.457h1.459h1.457h1.457v1.457v1.457h1.457h1.455v1.455v1.461h-1.455h-1.457v-1.461v-1.455h-1.457h-1.457
				h-1.459h-1.457h-1.457h-1.455h-1.457v1.455v1.461h1.457h1.455h1.457h1.457h1.459h1.457h1.457v1.457v1.455h-1.457v1.457v1.457
				h1.457h1.457v1.457v1.457h-1.457h-1.457v-1.457v-1.457h-1.457h-1.459v-1.457v-1.457h-1.457h-1.457h-1.455h-1.457v1.457v1.457
				v1.457v1.457v1.455v1.457H118.03z M132.598,68.802h-1.455v-1.457V65.89h1.455h1.457v1.455v1.457H132.598z"/>
			<path d="M138.426,65.89h-1.457h-1.457v-1.457v-1.457v-1.457v-1.457v-1.455V57.15v-1.461v-1.455h1.457h1.457v1.455v1.461v1.457
				v1.455v1.457v1.457v1.457V65.89z M150.083,54.234h-1.457h-1.461h-1.455h-1.457h-1.457h-1.457h-1.459h-1.453v-1.457V51.32h1.453
				h1.459h1.457h1.457h1.457h1.455h1.461h1.457v1.457V54.234z M148.625,68.802h-1.461h-1.455h-1.457h-1.457h-1.457h-1.459h-1.453
				v-1.457V65.89h1.453h1.459h1.457h1.457h1.457h1.455h1.461h1.457v1.455v1.457H148.625z M150.083,65.89v-1.457v-1.457v-1.457
				v-1.457v-1.455V57.15v-1.461v-1.455h1.455h1.457v1.455v1.461v1.457v1.455v1.457v1.457v1.457v1.457h-1.457H150.083z"/>
			<path d="M157.366,65.89h-1.457h-1.457v-1.457v-1.457v-1.457v-1.457v-1.455V57.15v-1.461v-1.455h1.457h1.457v1.455v1.461v1.457
				v1.455v1.457v1.457v1.457V65.89z M169.022,57.15h-1.457v-1.461v-1.455h-1.457h-1.457h-1.457h-1.459h-1.457h-1.457h-1.455v-1.457
				V51.32h1.455h1.457h1.457h1.459h1.457h1.457h1.457h1.457v1.457v1.457h1.455v1.455v1.461H169.022z M167.565,68.802h-1.457h-1.457
				h-1.457h-1.459h-1.457h-1.457h-1.455v-1.457V65.89h1.455h1.457h1.457h1.459h1.457h1.457h1.457v-1.457v-1.457h1.457h1.455v1.457
				v1.457h-1.455v1.455v1.457H167.565z"/>
			<path d="M174.848,65.89h-1.457h-1.457v-1.457v-1.457v-1.457v-1.457v-1.455V57.15v-1.461v-1.455h1.457h1.457v1.455v1.461v1.457
				v1.455v1.457v1.457v1.457V65.89z M186.504,57.15h-1.457v-1.461v-1.455h-1.457h-1.459h-1.457h-1.457h-1.457h-1.455h-1.457v-1.457
				V51.32h1.457h1.455h1.457h1.457h1.457h1.459h1.457h1.457v1.457v1.457h1.457v1.455v1.461H186.504z M185.047,68.802h-1.457h-1.459
				h-1.457h-1.457h-1.457h-1.455h-1.457v-1.457V65.89h1.457h1.455h1.457h1.457h1.457h1.459h1.457v-1.457v-1.457h1.457h1.457v1.457
				v1.457h-1.457v1.455v1.457H185.047z"/>
			<path d="M192.331,65.89h-1.453h-1.461v-1.457v-1.457v-1.457v-1.457v-1.455V57.15v-1.461v-1.455h1.461h1.453v1.455v1.461v1.457
				v1.455v1.457v1.457v1.457V65.89z M203.987,54.234h-1.457h-1.457h-1.455h-1.457H196.7h-1.457h-1.455h-1.457v-1.457V51.32h1.457
				h1.455h1.457h1.461h1.457h1.455h1.457h1.457v1.457V54.234z M202.53,68.802h-1.457h-1.455h-1.457H196.7h-1.457h-1.455h-1.457
				v-1.457V65.89h1.457h1.455h1.457h1.461h1.457h1.455h1.457h1.457v1.455v1.457H202.53z M203.987,65.89v-1.457v-1.457v-1.457v-1.457
				v-1.455V57.15v-1.461v-1.455h1.457h1.455v1.455v1.461v1.457v1.455v1.457v1.457v1.457v1.457h-1.455H203.987z"/>
			<path d="M220.012,68.802h-1.459h-1.457h-1.457h-1.457h-1.453h-1.459h-1.457h-1.453v-1.457V65.89v-1.457v-1.457v-1.457v-1.457
				v-1.455V57.15v-1.461v-1.455v-1.457V51.32h1.453h1.457v1.457v1.457v1.455v1.461v1.457v1.455v1.457v1.457v1.457v1.457h1.459h1.453
				h1.457h1.457h1.457h1.459h1.457v1.455v1.457H220.012z"/>
			<path d="M228.752,68.802h-1.457h-1.457h-1.455v-1.457V65.89h1.455v-1.457v-1.457v-1.457v-1.457v-1.455V57.15v-1.461v-1.455
				h-1.455v-1.457V51.32h1.455h1.457h1.457h1.457v1.457v1.457h-1.457v1.455v1.461v1.457v1.455v1.457v1.457v1.457v1.457h1.457v1.455
				v1.457H228.752z"/>
		</g>
	</g>
</g>
</svg>
