<?xml version="1.0" encoding="utf-8"?>
<!-- Generator: Adobe Illustrator 16.0.0, SVG Export Plug-In . SVG Version: 6.00 Build 0)  -->
<!DOCTYPE svg PUBLIC "-//W3C//DTD SVG 1.1//EN" "http://www.w3.org/Graphics/SVG/1.1/DTD/svg11.dtd">
<svg version="1.1" id="Layer_1" xmlns="http://www.w3.org/2000/svg" xmlns:xlink="http://www.w3.org/1999/xlink" x="0px" y="0px"
	 width="110px" height="110px" viewBox="0 0 110 110" enable-background="new 0 0 110 110" xml:space="preserve">
<g>
	<g>
		
			<polyline fill="none" stroke="#FFFF33" stroke-width="2" stroke-linecap="round" stroke-linejoin="round" stroke-miterlimit="10" points="
			45.956,86.063 42.556,88.146 11.896,38.103 46.532,16.881 51.729,25.363 		"/>
		
			<polyline fill="none" stroke="#FFFF33" stroke-width="2" stroke-linecap="round" stroke-linejoin="round" stroke-miterlimit="10" points="
			46.038,86.196 35.036,28.549 74.937,20.934 77.198,32.781 		"/>
		
			<rect x="51.59" y="32.306" transform="matrix(0.9796 0.2007 -0.2007 0.9796 13.8371 -13.1769)" fill="none" stroke="#FFFF33" stroke-width="2" stroke-linecap="round" stroke-linejoin="round" stroke-miterlimit="10" width="40.622" height="58.688"/>
	</g>
	<path fill="none" stroke="#FFFF33" stroke-width="2" stroke-linecap="round" stroke-linejoin="round" stroke-miterlimit="10" d="
		M81.894,63.373c1.108-5.444-8.852-10.173-7.88-14.946C73.042,53.2,62.027,53.66,60.919,59.104c-0.589,2.896,1.281,5.72,4.178,6.31
		c1.055,0.215,2.099,0.096,3.031-0.274c-0.507,1.944-2.612,8.86-6.734,8.021l7.284,1.482l7.284,1.482
		c-4.121-0.839-3.355-8.027-3.063-10.015c0.713,0.705,1.628,1.222,2.684,1.437C78.479,68.138,81.304,66.269,81.894,63.373z"/>
</g>
</svg>
