<?xml version="1.0" encoding="utf-8"?>
<!-- Generator: Adobe Illustrator 16.0.0, SVG Export Plug-In . SVG Version: 6.00 Build 0)  -->
<!DOCTYPE svg PUBLIC "-//W3C//DTD SVG 1.1//EN" "http://www.w3.org/Graphics/SVG/1.1/DTD/svg11.dtd">
<svg version="1.1" id="Layer_1" xmlns="http://www.w3.org/2000/svg" xmlns:xlink="http://www.w3.org/1999/xlink" x="0px" y="0px"
	 width="50px" height="50px" viewBox="0 0 50 50" enable-background="new 0 0 50 50" xml:space="preserve">
<g>
	<path fill="#F9ED32" d="M34.386,37.338c-0.259,0-0.518-0.067-0.75-0.201L14.864,26.299c-0.464-0.268-0.75-0.763-0.75-1.299
		s0.286-1.031,0.75-1.299l18.771-10.837c0.232-0.134,0.491-0.201,0.75-0.201s0.518,0.067,0.75,0.201
		c0.464,0.268,0.75,0.763,0.75,1.299v21.675c0,0.536-0.286,1.031-0.75,1.299C34.903,37.271,34.645,37.338,34.386,37.338z"/>
	<path fill="#F9ED32" d="M34.386,14.163v21.675L15.614,25L34.386,14.163 M34.386,11.163c-0.518,0-1.036,0.134-1.5,0.402
		L14.114,22.402c-0.928,0.536-1.5,1.526-1.5,2.598c0,1.071,0.572,2.063,1.5,2.598l18.771,10.838c0.464,0.269,0.982,0.402,1.5,0.402
		s1.036-0.134,1.5-0.402c0.928-0.535,1.5-1.525,1.5-2.598V14.163c0-1.072-0.572-2.062-1.5-2.598
		C35.422,11.296,34.903,11.163,34.386,11.163L34.386,11.163z"/>
</g>
</svg>
