<?xml version="1.0" encoding="utf-8"?>
<!-- Generator: Adobe Illustrator 16.0.0, SVG Export Plug-In . SVG Version: 6.00 Build 0)  -->
<!DOCTYPE svg PUBLIC "-//W3C//DTD SVG 1.1//EN" "http://www.w3.org/Graphics/SVG/1.1/DTD/svg11.dtd">
<svg version="1.1" id="Layer_1" xmlns="http://www.w3.org/2000/svg" xmlns:xlink="http://www.w3.org/1999/xlink" x="0px" y="0px"
	 width="50px" height="50px" viewBox="0 0 50 50" enable-background="new 0 0 50 50" xml:space="preserve">
<g>
	<path fill="#F9ED32" d="M15.615,37.339c-0.259,0-0.518-0.067-0.75-0.201c-0.464-0.268-0.75-0.763-0.75-1.299V14.163
		c0-0.536,0.286-1.031,0.75-1.299c0.232-0.134,0.491-0.201,0.75-0.201s0.518,0.067,0.75,0.201l18.771,10.838
		c0.464,0.268,0.75,0.763,0.75,1.299s-0.286,1.031-0.75,1.299L16.365,37.138C16.133,37.271,15.874,37.339,15.615,37.339z"/>
	<path fill="#F9ED32" d="M15.615,14.163l18.771,10.838L15.615,35.839V14.163 M15.615,11.163c-0.518,0-1.036,0.134-1.5,0.402
		c-0.928,0.536-1.5,1.526-1.5,2.598v21.676c0,1.072,0.572,2.063,1.5,2.598c0.464,0.269,0.982,0.402,1.5,0.402s1.036-0.134,1.5-0.402
		l18.771-10.838c0.928-0.535,1.5-1.525,1.5-2.598c0-1.072-0.572-2.062-1.5-2.598L17.115,11.565
		C16.651,11.297,16.133,11.163,15.615,11.163L15.615,11.163z"/>
</g>
</svg>
