<?xml version="1.0" encoding="utf-8"?>
<!-- Generator: Adobe Illustrator 16.0.0, SVG Export Plug-In . SVG Version: 6.00 Build 0)  -->
<!DOCTYPE svg PUBLIC "-//W3C//DTD SVG 1.1//EN" "http://www.w3.org/Graphics/SVG/1.1/DTD/svg11.dtd">
<svg version="1.1" id="Layer_1" xmlns="http://www.w3.org/2000/svg" xmlns:xlink="http://www.w3.org/1999/xlink" x="0px" y="0px"
	 width="50px" height="50px" viewBox="0 0 50 50" enable-background="new 0 0 50 50" xml:space="preserve">
<path fill="#F9ED32" d="M38.077,32.527l-7.526-7.526l7.527-7.527c1.38-1.38,1.257-3.741-0.275-5.273
	c-1.533-1.533-3.895-1.657-5.274-0.276L25,19.452l-7.527-7.527c-1.38-1.381-3.741-1.257-5.273,0.275
	c-1.533,1.532-1.656,3.893-0.276,5.273l7.527,7.527l-7.527,7.527c-1.38,1.38-1.258,3.742,0.275,5.275
	c1.532,1.532,3.895,1.654,5.274,0.274l7.528-7.528l7.528,7.527c1.38,1.38,3.74,1.257,5.272-0.275
	C39.334,36.269,39.458,33.908,38.077,32.527z"/>
</svg>
