<?xml version="1.0" encoding="utf-8"?>
<!-- Generator: Adobe Illustrator 16.0.0, SVG Export Plug-In . SVG Version: 6.00 Build 0)  -->
<!DOCTYPE svg PUBLIC "-//W3C//DTD SVG 1.1//EN" "http://www.w3.org/Graphics/SVG/1.1/DTD/svg11.dtd">
<svg version="1.1" id="Layer_1" xmlns="http://www.w3.org/2000/svg" xmlns:xlink="http://www.w3.org/1999/xlink" x="0px" y="0px"
	 width="50px" height="50px" viewBox="0 0 50 50" enable-background="new 0 0 50 50" xml:space="preserve">
<g>
	<path fill="#F9ED32" d="M21.806,12.663c0.26,0,0.519,0.066,0.75,0.201l18.772,10.838c0.465,0.268,0.75,0.763,0.75,1.299
		s-0.285,1.031-0.75,1.299L22.558,37.137c-0.232,0.134-0.491,0.201-0.75,0.201c-0.26,0-0.518-0.067-0.75-0.201
		c-0.465-0.268-0.75-0.763-0.75-1.299V14.163c0-0.536,0.285-1.031,0.75-1.299C21.29,12.729,21.548,12.663,21.806,12.663z"/>
	<path fill="#F9ED32" d="M21.806,35.838V14.163l18.772,10.838L21.806,35.838 M21.806,38.838c0.519,0,1.037-0.134,1.5-0.402
		l18.772-10.837c0.928-0.536,1.5-1.526,1.5-2.598c0-1.07-0.572-2.063-1.5-2.598L23.308,11.565c-0.465-0.27-0.982-0.402-1.5-0.402
		s-1.036,0.134-1.5,0.402c-0.928,0.535-1.5,1.524-1.5,2.598v21.675c0,1.072,0.572,2.062,1.5,2.598
		C20.771,38.705,21.29,38.838,21.806,38.838L21.806,38.838z"/>
</g>
<g>
	<path fill="#F9ED32" d="M9.42,12.663c0.26,0,0.519,0.066,0.75,0.201l18.773,10.838c0.465,0.268,0.75,0.763,0.75,1.299
		s-0.285,1.031-0.75,1.299L10.172,37.137c-0.232,0.134-0.491,0.201-0.75,0.201c-0.26,0-0.518-0.067-0.75-0.201
		c-0.465-0.268-0.75-0.763-0.75-1.299V14.163c0-0.536,0.285-1.031,0.75-1.299C8.905,12.729,9.163,12.663,9.42,12.663z"/>
	<path fill="#F9ED32" d="M9.42,35.838V14.163l18.773,10.838L9.42,35.838 M9.42,38.838c0.519,0,1.037-0.134,1.5-0.402l18.773-10.837
		c0.928-0.536,1.5-1.526,1.5-2.598c0-1.07-0.572-2.063-1.5-2.598L10.922,11.565c-0.465-0.27-0.982-0.402-1.5-0.402
		s-1.036,0.134-1.5,0.402c-0.928,0.535-1.5,1.524-1.5,2.598v21.675c0,1.072,0.572,2.062,1.5,2.598
		C8.385,38.705,8.905,38.838,9.42,38.838L9.42,38.838z"/>
</g>
</svg>
