<?xml version="1.0" encoding="utf-8"?>
<!-- Generator: Adobe Illustrator 16.0.0, SVG Export Plug-In . SVG Version: 6.00 Build 0)  -->
<!DOCTYPE svg PUBLIC "-//W3C//DTD SVG 1.1//EN" "http://www.w3.org/Graphics/SVG/1.1/DTD/svg11.dtd">
<svg version="1.1" id="Layer_1" xmlns="http://www.w3.org/2000/svg" xmlns:xlink="http://www.w3.org/1999/xlink" x="0px" y="0px"
	 width="50px" height="50px" viewBox="0 0 50 50" enable-background="new 0 0 50 50" xml:space="preserve">
<g>
	<circle cx="25" cy="25" r="24.999"/>
	<g>
		<path fill="#EC008C" d="M33.079,39.352h-8.091c-0.015,0-0.053-0.035-0.063-0.08l-1.493-9.515
			c-0.102-0.902-0.544-1.001-0.729-1.001c-0.39,0-0.656,0.38-0.727,1.027l-1.375,9.424c-0.024,0.078-0.045,0.121-0.058,0.145H14.75
			c-0.054,0-0.128-0.068-0.139-0.15l-3.779-28.504c-0.002-0.021-0.003-0.036-0.002-0.048c0.006,0,0.014,0,0.021,0h6.262
			c0.061,0,0.164,0.039,0.176,0.134l0.865,9.332c0.085,0.932,0.444,1.127,0.731,1.127c0.411,0,0.706-0.432,0.769-1.122l0.942-9.303
			c0.031-0.117,0.057-0.161,0.061-0.169l3.999-0.002c0.026,0.009,0.074,0.057,0.078,0.063l1.022,9.405
			c0.085,0.932,0.444,1.127,0.73,1.127c0.412,0,0.706-0.432,0.771-1.13l0.784-9.349c0.012-0.075,0.034-0.112,0.023-0.114h5.016
			c0.229,0,0.418-0.188,0.418-0.418c0-0.229-0.188-0.416-0.418-0.416h-5.02c-0.434,0-0.773,0.334-0.847,0.854l-0.718,8.539
			l-0.938-8.613c-0.07-0.424-0.476-0.78-0.883-0.78h-4.018c-0.443,0-0.739,0.278-0.876,0.827c-0.005,0.02-0.009,0.039-0.011,0.059
			l-0.861,8.511l-0.791-8.519c-0.063-0.501-0.495-0.878-1.004-0.878H10.85c-0.265,0-0.497,0.096-0.65,0.269
			c-0.112,0.125-0.236,0.348-0.196,0.715l3.782,28.516c0.069,0.486,0.493,0.869,0.965,0.869h5.828c0.28,0,0.651-0.133,0.834-0.773
			c0.005-0.018,0.009-0.035,0.01-0.055l1.289-8.83l1.395,8.879c0.074,0.443,0.455,0.779,0.884,0.779h8.091
			c0.229,0,0.418-0.186,0.418-0.414C33.497,39.537,33.309,39.352,33.079,39.352z"/>
		<path fill="#FFFF33" d="M31.679,28.312l10.304-2.186l0.015,0.076l-4.243,4.066l-5.379,1.142c-1.074,0.229-1.924,1.07-2.554,2.521
			l0.017,0.076l3.023-0.682l2.007-0.427c1.516-0.32,2.472-0.233,2.867,0.265c0.138,0.154,0.236,0.371,0.296,0.647
			c0.107,0.514-0.236,1.746-1.034,3.706c-0.708,1.329-1.516,2.252-2.421,2.768c-0.833,0.493-1.584,0.811-2.252,0.953l-5.456,1.159
			l-3.113,0.62l-0.017-0.076l4.501-4.161l3.37-0.714c1.529-0.325,2.449-1.153,2.759-2.485l-5.567,1.182
			c-1.092,0.231-1.859,0.102-2.297-0.384l-0.272-0.536c-0.155-0.725,0.354-2.311,1.524-4.758
			C28.723,29.585,30.03,28.662,31.679,28.312z"/>
	</g>
</g>
</svg>
